<mxfile host="Electron" modified="2024-07-19T09:33:15.699Z" agent="Mozilla/5.0 (Windows NT 10.0; Win64; x64) AppleWebKit/537.36 (KHTML, like Gecko) draw.io/22.0.3 Chrome/114.0.5735.289 Electron/25.8.4 Safari/537.36" etag="kKlk9jiV21kLGePx_f_T" version="22.0.3" type="device">
  <diagram name="Page-1" id="JtSEoqSY3P67cDWs4eRp">
    <mxGraphModel dx="619" dy="109" grid="1" gridSize="10" guides="1" tooltips="1" connect="1" arrows="1" fold="1" page="1" pageScale="1" pageWidth="500" pageHeight="420" math="0" shadow="0">
      <root>
        <mxCell id="0" />
        <mxCell id="1" parent="0" />
        <mxCell id="sDIMK2-kgTZMhIiAH838-79" value="" style="endArrow=none;dashed=1;html=1;dashPattern=1 3;strokeWidth=2;rounded=0;" edge="1" parent="1">
          <mxGeometry width="50" height="50" relative="1" as="geometry">
            <mxPoint x="235" y="603" as="sourcePoint" />
            <mxPoint x="234.9" y="683" as="targetPoint" />
          </mxGeometry>
        </mxCell>
        <mxCell id="sDIMK2-kgTZMhIiAH838-78" value="" style="endArrow=none;dashed=1;html=1;dashPattern=1 3;strokeWidth=2;rounded=0;" edge="1" parent="1">
          <mxGeometry width="50" height="50" relative="1" as="geometry">
            <mxPoint x="383" y="588" as="sourcePoint" />
            <mxPoint x="383" y="678" as="targetPoint" />
          </mxGeometry>
        </mxCell>
        <mxCell id="sDIMK2-kgTZMhIiAH838-5" style="edgeStyle=orthogonalEdgeStyle;rounded=0;orthogonalLoop=1;jettySize=auto;html=1;exitX=0.5;exitY=0;exitDx=0;exitDy=0;entryX=0.5;entryY=1;entryDx=0;entryDy=0;endArrow=none;endFill=0;" edge="1" parent="1" source="sDIMK2-kgTZMhIiAH838-3" target="sDIMK2-kgTZMhIiAH838-4">
          <mxGeometry relative="1" as="geometry" />
        </mxCell>
        <mxCell id="sDIMK2-kgTZMhIiAH838-3" value="Machine d&#39;Anticythère" style="rounded=1;whiteSpace=wrap;html=1;" vertex="1" parent="1">
          <mxGeometry x="20" y="540" width="110" height="40" as="geometry" />
        </mxCell>
        <mxCell id="sDIMK2-kgTZMhIiAH838-66" style="edgeStyle=orthogonalEdgeStyle;rounded=0;orthogonalLoop=1;jettySize=auto;html=1;exitX=1;exitY=0.5;exitDx=0;exitDy=0;endArrow=none;endFill=0;" edge="1" parent="1" source="sDIMK2-kgTZMhIiAH838-4" target="sDIMK2-kgTZMhIiAH838-33">
          <mxGeometry relative="1" as="geometry" />
        </mxCell>
        <mxCell id="sDIMK2-kgTZMhIiAH838-77" style="edgeStyle=orthogonalEdgeStyle;rounded=0;orthogonalLoop=1;jettySize=auto;html=1;exitX=0;exitY=0.5;exitDx=0;exitDy=0;endArrow=none;endFill=0;" edge="1" parent="1" source="sDIMK2-kgTZMhIiAH838-4">
          <mxGeometry relative="1" as="geometry">
            <mxPoint x="10" y="505" as="targetPoint" />
          </mxGeometry>
        </mxCell>
        <mxCell id="sDIMK2-kgTZMhIiAH838-4" value="" style="ellipse;whiteSpace=wrap;html=1;aspect=fixed;" vertex="1" parent="1">
          <mxGeometry x="70" y="500" width="10" height="10" as="geometry" />
        </mxCell>
        <mxCell id="sDIMK2-kgTZMhIiAH838-6" style="edgeStyle=orthogonalEdgeStyle;rounded=0;orthogonalLoop=1;jettySize=auto;html=1;exitX=0.5;exitY=0;exitDx=0;exitDy=0;entryX=0.5;entryY=1;entryDx=0;entryDy=0;endArrow=none;endFill=0;" edge="1" parent="1" source="sDIMK2-kgTZMhIiAH838-7" target="sDIMK2-kgTZMhIiAH838-8">
          <mxGeometry relative="1" as="geometry" />
        </mxCell>
        <mxCell id="sDIMK2-kgTZMhIiAH838-7" value="La Pascaline" style="rounded=1;whiteSpace=wrap;html=1;" vertex="1" parent="1">
          <mxGeometry x="200" y="540" width="70" height="40" as="geometry" />
        </mxCell>
        <mxCell id="sDIMK2-kgTZMhIiAH838-68" style="edgeStyle=orthogonalEdgeStyle;rounded=0;orthogonalLoop=1;jettySize=auto;html=1;exitX=1;exitY=0.5;exitDx=0;exitDy=0;entryX=0;entryY=0.5;entryDx=0;entryDy=0;endArrow=none;endFill=0;" edge="1" parent="1" source="sDIMK2-kgTZMhIiAH838-8" target="sDIMK2-kgTZMhIiAH838-11">
          <mxGeometry relative="1" as="geometry" />
        </mxCell>
        <mxCell id="sDIMK2-kgTZMhIiAH838-8" value="" style="ellipse;whiteSpace=wrap;html=1;aspect=fixed;" vertex="1" parent="1">
          <mxGeometry x="230" y="500" width="10" height="10" as="geometry" />
        </mxCell>
        <mxCell id="sDIMK2-kgTZMhIiAH838-13" value="1642" style="text;strokeColor=none;align=center;fillColor=none;html=1;verticalAlign=middle;whiteSpace=wrap;rounded=0;" vertex="1" parent="1">
          <mxGeometry x="205" y="470" width="60" height="30" as="geometry" />
        </mxCell>
        <mxCell id="sDIMK2-kgTZMhIiAH838-31" style="edgeStyle=orthogonalEdgeStyle;rounded=0;orthogonalLoop=1;jettySize=auto;html=1;endArrow=none;endFill=0;" edge="1" parent="1" source="sDIMK2-kgTZMhIiAH838-32" target="sDIMK2-kgTZMhIiAH838-33">
          <mxGeometry relative="1" as="geometry">
            <mxPoint x="215" y="510" as="targetPoint" />
          </mxGeometry>
        </mxCell>
        <mxCell id="sDIMK2-kgTZMhIiAH838-32" value="Bâtons de Napier" style="rounded=1;whiteSpace=wrap;html=1;" vertex="1" parent="1">
          <mxGeometry x="155" y="430" width="110" height="40" as="geometry" />
        </mxCell>
        <mxCell id="sDIMK2-kgTZMhIiAH838-67" style="edgeStyle=orthogonalEdgeStyle;rounded=0;orthogonalLoop=1;jettySize=auto;html=1;exitX=1;exitY=0.5;exitDx=0;exitDy=0;entryX=0;entryY=0.5;entryDx=0;entryDy=0;endArrow=none;endFill=0;" edge="1" parent="1" source="sDIMK2-kgTZMhIiAH838-33" target="sDIMK2-kgTZMhIiAH838-8">
          <mxGeometry relative="1" as="geometry" />
        </mxCell>
        <mxCell id="sDIMK2-kgTZMhIiAH838-33" value="" style="ellipse;whiteSpace=wrap;html=1;aspect=fixed;" vertex="1" parent="1">
          <mxGeometry x="205" y="500" width="10" height="10" as="geometry" />
        </mxCell>
        <mxCell id="sDIMK2-kgTZMhIiAH838-34" value="1617" style="text;strokeColor=none;align=center;fillColor=none;html=1;verticalAlign=middle;whiteSpace=wrap;rounded=0;" vertex="1" parent="1">
          <mxGeometry x="180" y="510" width="60" height="30" as="geometry" />
        </mxCell>
        <mxCell id="sDIMK2-kgTZMhIiAH838-47" style="edgeStyle=orthogonalEdgeStyle;rounded=0;orthogonalLoop=1;jettySize=auto;html=1;endArrow=none;endFill=0;" edge="1" parent="1" source="sDIMK2-kgTZMhIiAH838-48" target="sDIMK2-kgTZMhIiAH838-49">
          <mxGeometry relative="1" as="geometry">
            <mxPoint x="670" y="510" as="targetPoint" />
          </mxGeometry>
        </mxCell>
        <mxCell id="sDIMK2-kgTZMhIiAH838-48" value="Le Frontier&lt;br&gt;OLCF-5" style="rounded=1;whiteSpace=wrap;html=1;" vertex="1" parent="1">
          <mxGeometry x="610" y="430" width="110" height="40" as="geometry" />
        </mxCell>
        <mxCell id="sDIMK2-kgTZMhIiAH838-76" style="edgeStyle=orthogonalEdgeStyle;rounded=0;orthogonalLoop=1;jettySize=auto;html=1;exitX=1;exitY=0.5;exitDx=0;exitDy=0;" edge="1" parent="1" source="sDIMK2-kgTZMhIiAH838-49">
          <mxGeometry relative="1" as="geometry">
            <mxPoint x="740" y="505" as="targetPoint" />
          </mxGeometry>
        </mxCell>
        <mxCell id="sDIMK2-kgTZMhIiAH838-49" value="" style="ellipse;whiteSpace=wrap;html=1;aspect=fixed;" vertex="1" parent="1">
          <mxGeometry x="660" y="500" width="10" height="10" as="geometry" />
        </mxCell>
        <mxCell id="sDIMK2-kgTZMhIiAH838-50" value="2022" style="text;strokeColor=none;align=center;fillColor=none;html=1;verticalAlign=middle;whiteSpace=wrap;rounded=0;" vertex="1" parent="1">
          <mxGeometry x="635" y="510" width="60" height="30" as="geometry" />
        </mxCell>
        <mxCell id="sDIMK2-kgTZMhIiAH838-51" value="" style="group" vertex="1" connectable="0" parent="1">
          <mxGeometry x="590" y="470" width="110" height="110" as="geometry" />
        </mxCell>
        <mxCell id="sDIMK2-kgTZMhIiAH838-44" value="Le Behold Summit" style="rounded=1;whiteSpace=wrap;html=1;" vertex="1" parent="sDIMK2-kgTZMhIiAH838-51">
          <mxGeometry y="70" width="110" height="40" as="geometry" />
        </mxCell>
        <mxCell id="sDIMK2-kgTZMhIiAH838-45" value="" style="ellipse;whiteSpace=wrap;html=1;aspect=fixed;" vertex="1" parent="sDIMK2-kgTZMhIiAH838-51">
          <mxGeometry x="50" y="30" width="10" height="10" as="geometry" />
        </mxCell>
        <mxCell id="sDIMK2-kgTZMhIiAH838-43" style="edgeStyle=orthogonalEdgeStyle;rounded=0;orthogonalLoop=1;jettySize=auto;html=1;exitX=0.5;exitY=0;exitDx=0;exitDy=0;entryX=0.5;entryY=1;entryDx=0;entryDy=0;endArrow=none;endFill=0;" edge="1" parent="sDIMK2-kgTZMhIiAH838-51" source="sDIMK2-kgTZMhIiAH838-44" target="sDIMK2-kgTZMhIiAH838-45">
          <mxGeometry relative="1" as="geometry" />
        </mxCell>
        <mxCell id="sDIMK2-kgTZMhIiAH838-46" value="2018" style="text;strokeColor=none;align=center;fillColor=none;html=1;verticalAlign=middle;whiteSpace=wrap;rounded=0;" vertex="1" parent="sDIMK2-kgTZMhIiAH838-51">
          <mxGeometry x="25" width="60" height="30" as="geometry" />
        </mxCell>
        <mxCell id="sDIMK2-kgTZMhIiAH838-53" value="" style="group" vertex="1" connectable="0" parent="1">
          <mxGeometry x="510" y="430" width="110" height="110" as="geometry" />
        </mxCell>
        <mxCell id="sDIMK2-kgTZMhIiAH838-36" value="Le PDP-8" style="rounded=1;whiteSpace=wrap;html=1;" vertex="1" parent="sDIMK2-kgTZMhIiAH838-53">
          <mxGeometry x="20" width="70" height="40" as="geometry" />
        </mxCell>
        <mxCell id="sDIMK2-kgTZMhIiAH838-37" value="" style="ellipse;whiteSpace=wrap;html=1;aspect=fixed;" vertex="1" parent="sDIMK2-kgTZMhIiAH838-53">
          <mxGeometry x="50" y="70" width="10" height="10" as="geometry" />
        </mxCell>
        <mxCell id="sDIMK2-kgTZMhIiAH838-35" style="edgeStyle=orthogonalEdgeStyle;rounded=0;orthogonalLoop=1;jettySize=auto;html=1;endArrow=none;endFill=0;" edge="1" parent="sDIMK2-kgTZMhIiAH838-53" source="sDIMK2-kgTZMhIiAH838-36" target="sDIMK2-kgTZMhIiAH838-37">
          <mxGeometry relative="1" as="geometry">
            <mxPoint x="60" y="80" as="targetPoint" />
          </mxGeometry>
        </mxCell>
        <mxCell id="sDIMK2-kgTZMhIiAH838-38" value="1965" style="text;strokeColor=none;align=center;fillColor=none;html=1;verticalAlign=middle;whiteSpace=wrap;rounded=0;" vertex="1" parent="sDIMK2-kgTZMhIiAH838-53">
          <mxGeometry x="25" y="80" width="60" height="30" as="geometry" />
        </mxCell>
        <mxCell id="sDIMK2-kgTZMhIiAH838-54" value="" style="group" vertex="1" connectable="0" parent="1">
          <mxGeometry x="470" y="470" width="110" height="110" as="geometry" />
        </mxCell>
        <mxCell id="sDIMK2-kgTZMhIiAH838-28" value="L&#39;ENIAC" style="rounded=1;whiteSpace=wrap;html=1;" vertex="1" parent="sDIMK2-kgTZMhIiAH838-54">
          <mxGeometry x="20" y="70" width="70" height="40" as="geometry" />
        </mxCell>
        <mxCell id="sDIMK2-kgTZMhIiAH838-29" value="" style="ellipse;whiteSpace=wrap;html=1;aspect=fixed;" vertex="1" parent="sDIMK2-kgTZMhIiAH838-54">
          <mxGeometry x="50" y="30" width="10" height="10" as="geometry" />
        </mxCell>
        <mxCell id="sDIMK2-kgTZMhIiAH838-27" style="edgeStyle=orthogonalEdgeStyle;rounded=0;orthogonalLoop=1;jettySize=auto;html=1;exitX=0.5;exitY=0;exitDx=0;exitDy=0;entryX=0.5;entryY=1;entryDx=0;entryDy=0;endArrow=none;endFill=0;" edge="1" parent="sDIMK2-kgTZMhIiAH838-54" source="sDIMK2-kgTZMhIiAH838-28" target="sDIMK2-kgTZMhIiAH838-29">
          <mxGeometry relative="1" as="geometry" />
        </mxCell>
        <mxCell id="sDIMK2-kgTZMhIiAH838-30" value="1945" style="text;strokeColor=none;align=center;fillColor=none;html=1;verticalAlign=middle;whiteSpace=wrap;rounded=0;" vertex="1" parent="sDIMK2-kgTZMhIiAH838-54">
          <mxGeometry x="25" width="60" height="30" as="geometry" />
        </mxCell>
        <mxCell id="sDIMK2-kgTZMhIiAH838-55" value="" style="group" vertex="1" connectable="0" parent="1">
          <mxGeometry x="430" y="430" width="95" height="110" as="geometry" />
        </mxCell>
        <mxCell id="sDIMK2-kgTZMhIiAH838-24" value="l&#39;ASCC d&#39;IBM" style="rounded=1;whiteSpace=wrap;html=1;" vertex="1" parent="sDIMK2-kgTZMhIiAH838-55">
          <mxGeometry width="95" height="40" as="geometry" />
        </mxCell>
        <mxCell id="sDIMK2-kgTZMhIiAH838-25" value="" style="ellipse;whiteSpace=wrap;html=1;aspect=fixed;" vertex="1" parent="sDIMK2-kgTZMhIiAH838-55">
          <mxGeometry x="42.5" y="70" width="10" height="10" as="geometry" />
        </mxCell>
        <mxCell id="sDIMK2-kgTZMhIiAH838-23" style="edgeStyle=orthogonalEdgeStyle;rounded=0;orthogonalLoop=1;jettySize=auto;html=1;endArrow=none;endFill=0;" edge="1" parent="sDIMK2-kgTZMhIiAH838-55" source="sDIMK2-kgTZMhIiAH838-24" target="sDIMK2-kgTZMhIiAH838-25">
          <mxGeometry relative="1" as="geometry">
            <mxPoint x="52.5" y="80" as="targetPoint" />
          </mxGeometry>
        </mxCell>
        <mxCell id="sDIMK2-kgTZMhIiAH838-26" value="1937" style="text;strokeColor=none;align=center;fillColor=none;html=1;verticalAlign=middle;whiteSpace=wrap;rounded=0;" vertex="1" parent="sDIMK2-kgTZMhIiAH838-55">
          <mxGeometry x="17.5" y="80" width="60" height="30" as="geometry" />
        </mxCell>
        <mxCell id="sDIMK2-kgTZMhIiAH838-56" value="" style="group" vertex="1" connectable="0" parent="1">
          <mxGeometry x="340" y="470" width="110" height="110" as="geometry" />
        </mxCell>
        <mxCell id="sDIMK2-kgTZMhIiAH838-15" value="Machine analytique Charles Babbage" style="rounded=1;whiteSpace=wrap;html=1;" vertex="1" parent="sDIMK2-kgTZMhIiAH838-56">
          <mxGeometry y="70" width="110" height="40" as="geometry" />
        </mxCell>
        <mxCell id="sDIMK2-kgTZMhIiAH838-16" value="" style="ellipse;whiteSpace=wrap;html=1;aspect=fixed;" vertex="1" parent="sDIMK2-kgTZMhIiAH838-56">
          <mxGeometry x="50" y="30" width="10" height="10" as="geometry" />
        </mxCell>
        <mxCell id="sDIMK2-kgTZMhIiAH838-14" style="edgeStyle=orthogonalEdgeStyle;rounded=0;orthogonalLoop=1;jettySize=auto;html=1;exitX=0.5;exitY=0;exitDx=0;exitDy=0;entryX=0.5;entryY=1;entryDx=0;entryDy=0;endArrow=none;endFill=0;" edge="1" parent="sDIMK2-kgTZMhIiAH838-56" source="sDIMK2-kgTZMhIiAH838-15" target="sDIMK2-kgTZMhIiAH838-16">
          <mxGeometry relative="1" as="geometry" />
        </mxCell>
        <mxCell id="sDIMK2-kgTZMhIiAH838-17" value="1837" style="text;strokeColor=none;align=center;fillColor=none;html=1;verticalAlign=middle;whiteSpace=wrap;rounded=0;" vertex="1" parent="sDIMK2-kgTZMhIiAH838-56">
          <mxGeometry x="25" width="60" height="30" as="geometry" />
        </mxCell>
        <mxCell id="sDIMK2-kgTZMhIiAH838-57" value="" style="group" vertex="1" connectable="0" parent="1">
          <mxGeometry x="280" y="430" width="110" height="110" as="geometry" />
        </mxCell>
        <mxCell id="sDIMK2-kgTZMhIiAH838-10" value="Métier à tisser Jacquard" style="rounded=1;whiteSpace=wrap;html=1;" vertex="1" parent="sDIMK2-kgTZMhIiAH838-57">
          <mxGeometry width="110" height="40" as="geometry" />
        </mxCell>
        <mxCell id="sDIMK2-kgTZMhIiAH838-11" value="" style="ellipse;whiteSpace=wrap;html=1;aspect=fixed;" vertex="1" parent="sDIMK2-kgTZMhIiAH838-57">
          <mxGeometry x="50" y="70" width="10" height="10" as="geometry" />
        </mxCell>
        <mxCell id="sDIMK2-kgTZMhIiAH838-9" style="edgeStyle=orthogonalEdgeStyle;rounded=0;orthogonalLoop=1;jettySize=auto;html=1;endArrow=none;endFill=0;" edge="1" parent="sDIMK2-kgTZMhIiAH838-57" source="sDIMK2-kgTZMhIiAH838-10" target="sDIMK2-kgTZMhIiAH838-11">
          <mxGeometry relative="1" as="geometry">
            <mxPoint x="60" y="80" as="targetPoint" />
          </mxGeometry>
        </mxCell>
        <mxCell id="sDIMK2-kgTZMhIiAH838-12" value="1801" style="text;strokeColor=none;align=center;fillColor=none;html=1;verticalAlign=middle;whiteSpace=wrap;rounded=0;" vertex="1" parent="sDIMK2-kgTZMhIiAH838-57">
          <mxGeometry x="25" y="80" width="60" height="30" as="geometry" />
        </mxCell>
        <mxCell id="sDIMK2-kgTZMhIiAH838-58" value="-87" style="text;strokeColor=none;align=center;fillColor=none;html=1;verticalAlign=middle;whiteSpace=wrap;rounded=0;" vertex="1" parent="1">
          <mxGeometry x="45" y="470" width="60" height="30" as="geometry" />
        </mxCell>
        <mxCell id="sDIMK2-kgTZMhIiAH838-65" value="" style="group" vertex="1" connectable="0" parent="1">
          <mxGeometry x="400" y="470" width="110" height="160" as="geometry" />
        </mxCell>
        <mxCell id="sDIMK2-kgTZMhIiAH838-61" value="Machine de Turing" style="rounded=1;whiteSpace=wrap;html=1;" vertex="1" parent="sDIMK2-kgTZMhIiAH838-65">
          <mxGeometry y="120" width="110" height="40" as="geometry" />
        </mxCell>
        <mxCell id="sDIMK2-kgTZMhIiAH838-62" value="" style="ellipse;whiteSpace=wrap;html=1;aspect=fixed;" vertex="1" parent="sDIMK2-kgTZMhIiAH838-65">
          <mxGeometry x="50" y="30" width="10" height="10" as="geometry" />
        </mxCell>
        <mxCell id="sDIMK2-kgTZMhIiAH838-63" style="edgeStyle=orthogonalEdgeStyle;rounded=0;orthogonalLoop=1;jettySize=auto;html=1;exitX=0.5;exitY=0;exitDx=0;exitDy=0;entryX=0.5;entryY=1;entryDx=0;entryDy=0;endArrow=none;endFill=0;" edge="1" parent="sDIMK2-kgTZMhIiAH838-65" source="sDIMK2-kgTZMhIiAH838-61" target="sDIMK2-kgTZMhIiAH838-62">
          <mxGeometry relative="1" as="geometry" />
        </mxCell>
        <mxCell id="sDIMK2-kgTZMhIiAH838-64" value="1936" style="text;strokeColor=none;align=center;fillColor=none;html=1;verticalAlign=middle;whiteSpace=wrap;rounded=0;" vertex="1" parent="sDIMK2-kgTZMhIiAH838-65">
          <mxGeometry x="25" width="60" height="30" as="geometry" />
        </mxCell>
        <mxCell id="sDIMK2-kgTZMhIiAH838-69" style="edgeStyle=orthogonalEdgeStyle;rounded=0;orthogonalLoop=1;jettySize=auto;html=1;exitX=1;exitY=0.5;exitDx=0;exitDy=0;entryX=0;entryY=0.5;entryDx=0;entryDy=0;endArrow=none;endFill=0;" edge="1" parent="1" source="sDIMK2-kgTZMhIiAH838-11" target="sDIMK2-kgTZMhIiAH838-16">
          <mxGeometry relative="1" as="geometry" />
        </mxCell>
        <mxCell id="sDIMK2-kgTZMhIiAH838-70" style="edgeStyle=orthogonalEdgeStyle;rounded=0;orthogonalLoop=1;jettySize=auto;html=1;exitX=1;exitY=0.5;exitDx=0;exitDy=0;entryX=0;entryY=0.5;entryDx=0;entryDy=0;endArrow=none;endFill=0;" edge="1" parent="1" source="sDIMK2-kgTZMhIiAH838-16" target="sDIMK2-kgTZMhIiAH838-62">
          <mxGeometry relative="1" as="geometry" />
        </mxCell>
        <mxCell id="sDIMK2-kgTZMhIiAH838-71" style="edgeStyle=orthogonalEdgeStyle;rounded=0;orthogonalLoop=1;jettySize=auto;html=1;exitX=1;exitY=0.5;exitDx=0;exitDy=0;entryX=0;entryY=0.5;entryDx=0;entryDy=0;endArrow=none;endFill=0;" edge="1" parent="1" source="sDIMK2-kgTZMhIiAH838-62" target="sDIMK2-kgTZMhIiAH838-25">
          <mxGeometry relative="1" as="geometry" />
        </mxCell>
        <mxCell id="sDIMK2-kgTZMhIiAH838-72" style="edgeStyle=orthogonalEdgeStyle;rounded=0;orthogonalLoop=1;jettySize=auto;html=1;exitX=1;exitY=0.5;exitDx=0;exitDy=0;entryX=0;entryY=0.5;entryDx=0;entryDy=0;endArrow=none;endFill=0;" edge="1" parent="1" source="sDIMK2-kgTZMhIiAH838-25" target="sDIMK2-kgTZMhIiAH838-29">
          <mxGeometry relative="1" as="geometry" />
        </mxCell>
        <mxCell id="sDIMK2-kgTZMhIiAH838-73" style="edgeStyle=orthogonalEdgeStyle;rounded=0;orthogonalLoop=1;jettySize=auto;html=1;exitX=1;exitY=0.5;exitDx=0;exitDy=0;entryX=0;entryY=0.5;entryDx=0;entryDy=0;endArrow=none;endFill=0;" edge="1" parent="1" source="sDIMK2-kgTZMhIiAH838-29" target="sDIMK2-kgTZMhIiAH838-37">
          <mxGeometry relative="1" as="geometry" />
        </mxCell>
        <mxCell id="sDIMK2-kgTZMhIiAH838-74" style="edgeStyle=orthogonalEdgeStyle;rounded=0;orthogonalLoop=1;jettySize=auto;html=1;exitX=1;exitY=0.5;exitDx=0;exitDy=0;entryX=0;entryY=0.5;entryDx=0;entryDy=0;endArrow=none;endFill=0;" edge="1" parent="1" source="sDIMK2-kgTZMhIiAH838-37" target="sDIMK2-kgTZMhIiAH838-45">
          <mxGeometry relative="1" as="geometry" />
        </mxCell>
        <mxCell id="sDIMK2-kgTZMhIiAH838-75" style="edgeStyle=orthogonalEdgeStyle;rounded=0;orthogonalLoop=1;jettySize=auto;html=1;exitX=1;exitY=0.5;exitDx=0;exitDy=0;entryX=0;entryY=0.5;entryDx=0;entryDy=0;endArrow=none;endFill=0;" edge="1" parent="1" source="sDIMK2-kgTZMhIiAH838-45" target="sDIMK2-kgTZMhIiAH838-49">
          <mxGeometry relative="1" as="geometry" />
        </mxCell>
        <mxCell id="sDIMK2-kgTZMhIiAH838-80" value="Calcul mécanique" style="text;strokeColor=none;align=center;fillColor=none;html=1;verticalAlign=top;whiteSpace=wrap;rounded=0;" vertex="1" parent="1">
          <mxGeometry x="250" y="640" width="60" height="30" as="geometry" />
        </mxCell>
        <mxCell id="sDIMK2-kgTZMhIiAH838-81" value="" style="endArrow=none;dashed=1;html=1;dashPattern=1 3;strokeWidth=2;rounded=0;" edge="1" parent="1">
          <mxGeometry width="50" height="50" relative="1" as="geometry">
            <mxPoint x="440" y="644" as="sourcePoint" />
            <mxPoint x="440" y="679" as="targetPoint" />
            <Array as="points">
              <mxPoint x="440" y="674" />
            </Array>
          </mxGeometry>
        </mxCell>
        <mxCell id="sDIMK2-kgTZMhIiAH838-82" value="Relais" style="text;strokeColor=none;align=center;fillColor=none;html=1;verticalAlign=top;whiteSpace=wrap;rounded=0;" vertex="1" parent="1">
          <mxGeometry x="380" y="640" width="60" height="30" as="geometry" />
        </mxCell>
        <mxCell id="sDIMK2-kgTZMhIiAH838-83" value="Tube&amp;nbsp;&lt;br&gt;électronique" style="text;strokeColor=none;align=center;fillColor=none;html=1;verticalAlign=top;whiteSpace=wrap;rounded=0;" vertex="1" parent="1">
          <mxGeometry x="454" y="640" width="60" height="30" as="geometry" />
        </mxCell>
        <mxCell id="sDIMK2-kgTZMhIiAH838-84" value="Transistor" style="text;strokeColor=none;align=center;fillColor=none;html=1;verticalAlign=top;whiteSpace=wrap;rounded=0;" vertex="1" parent="1">
          <mxGeometry x="540" y="640" width="60" height="30" as="geometry" />
        </mxCell>
        <mxCell id="sDIMK2-kgTZMhIiAH838-85" value="" style="endArrow=none;dashed=1;html=1;dashPattern=1 3;strokeWidth=2;rounded=0;" edge="1" parent="1">
          <mxGeometry width="50" height="50" relative="1" as="geometry">
            <mxPoint x="530" y="588" as="sourcePoint" />
            <mxPoint x="530" y="678" as="targetPoint" />
            <Array as="points">
              <mxPoint x="530" y="673" />
            </Array>
          </mxGeometry>
        </mxCell>
        <mxCell id="sDIMK2-kgTZMhIiAH838-86" value="" style="endArrow=none;dashed=1;html=1;dashPattern=1 3;strokeWidth=2;rounded=0;" edge="1" parent="1">
          <mxGeometry width="50" height="50" relative="1" as="geometry">
            <mxPoint x="610" y="588" as="sourcePoint" />
            <mxPoint x="610" y="678" as="targetPoint" />
            <Array as="points">
              <mxPoint x="610" y="673" />
            </Array>
          </mxGeometry>
        </mxCell>
        <mxCell id="sDIMK2-kgTZMhIiAH838-87" value="Micro-processeur" style="text;strokeColor=none;align=center;fillColor=none;html=1;verticalAlign=top;whiteSpace=wrap;rounded=0;" vertex="1" parent="1">
          <mxGeometry x="615" y="640" width="60" height="30" as="geometry" />
        </mxCell>
        <mxCell id="sDIMK2-kgTZMhIiAH838-88" value="" style="endArrow=none;dashed=1;html=1;dashPattern=1 3;strokeWidth=2;rounded=0;" edge="1" parent="1">
          <mxGeometry width="50" height="50" relative="1" as="geometry">
            <mxPoint x="334.71" y="587" as="sourcePoint" />
            <mxPoint x="334.71" y="677" as="targetPoint" />
          </mxGeometry>
        </mxCell>
        <mxCell id="sDIMK2-kgTZMhIiAH838-89" value="Cartes&lt;br&gt;Perf-&lt;br&gt;orées" style="text;strokeColor=none;align=center;fillColor=none;html=1;verticalAlign=top;whiteSpace=wrap;rounded=0;" vertex="1" parent="1">
          <mxGeometry x="330" y="640" width="60" height="30" as="geometry" />
        </mxCell>
      </root>
    </mxGraphModel>
  </diagram>
</mxfile>
